Coordinates
version=1
nRows=14
nColumns=36
inDegrees=yes

Units are S.I. units (second, meters, Newtons, ...)
If the header above contains a line with 'inDegrees', this indicates whether rotational values are in degrees (yes) or radians (no).

endheader
time	pelvis_tilt	pelvis_list	pelvis_rotation	pelvis_tx	pelvis_ty	pelvis_tz	hip_flexion_r	hip_adduction_r	hip_rotation_r	knee_angle_r	knee_angle_r_beta	ankle_angle_r	subtalar_angle_r	mtp_angle_r	hip_flexion_l	hip_adduction_l	hip_rotation_l	knee_angle_l	knee_angle_l_beta	ankle_angle_l	subtalar_angle_l	mtp_angle_l	lumbar_extension	lumbar_bending	lumbar_rotation	arm_flex_r	arm_add_r	arm_rot_r	elbow_flex_r	pro_sup_r	arm_flex_l	arm_add_l	arm_rot_l	elbow_flex_l	pro_sup_l
      0.00000000	     -2.08760111	     -3.02489200	     -2.55095465	      0.54196282	      0.89127507	      0.04462135	     28.14763693	      1.19435428	      1.22658635	     26.01260652	      0.45400563	     -8.15621544	    -29.03041790	     -6.07073754	      6.89469159	      5.07319098	     -5.23371670	     11.60602277	      0.20256331	     16.57174908	      0.87235537	     -6.07073754	    -10.79850198	     -0.41895183	     -1.67996790	     34.13950717	      8.86132971	     63.02502692	    118.40438025	    110.27803983	     44.13213833	      9.57268485	     66.20694034	    117.96297506	    104.98198356
      0.01666670	     -5.00494970	     -4.72345707	     -1.90340156	      0.54174592	      0.88351742	      0.04235397	     34.83259546	      3.32318053	      1.93639175	     28.21042649	      0.49236483	      1.82613390	    -22.32435074	     -6.44727666	     10.47753236	      3.95447495	     -3.29827327	     13.99004467	      0.24417234	     16.22701177	      0.53969305	     -6.44727666	     -7.00968042	      1.99815559	     -2.21551026	     33.67280418	      8.62658236	     63.81505401	    120.63521263	    108.45661192	     47.15420081	     10.07842865	     66.90216890	    119.81603644	    102.53492703
      0.03333330	     -5.42591756	     -5.24132189	     -2.57944552	      0.54271778	      0.88587533	      0.04275725	     36.42886490	      4.37467270	      1.61948238	     28.91864429	      0.50472556	      5.29443327	    -18.62243673	     -6.50931396	     11.29742753	      3.47004365	     -4.08421859	     16.80255790	      0.29325996	     10.85989673	      0.93882356	     -6.50931396	     -6.52843430	      3.31490747	     -1.32282672	     32.69192870	      7.97097034	     65.23124915	    120.91986859	    107.61318830	     47.50897107	      9.28324903	     66.92434391	    121.71794373	    101.51225350
      0.05000000	     -4.97991229	     -5.00297504	     -3.32074271	      0.54019625	      0.88647285	      0.04042767	     35.78778372	      3.63411292	      0.64420377	     29.12082142	      0.50825421	      0.88696844	    -20.30777937	     -6.63612757	     11.74204959	      3.99307402	     -4.65812850	     20.14124317	      0.35153101	      1.03481477	      2.44377812	     -6.63612757	     -7.07701700	      3.78576696	     -0.88396177	     32.63931653	      8.28678008	     67.74492394	    118.23594562	    104.79979094	     47.62318811	      8.60584839	     67.28929106	    122.85317529	     97.64914280
      0.06666670	     -4.41497540	     -4.73872000	     -3.66583766	      0.54056780	      0.88579344	      0.04051239	     34.95576955	      2.69346484	     -0.19046324	     28.33406633	      0.49452275	     -1.15368382	    -20.58061760	     -6.64762516	     12.21478671	      4.37768357	     -5.18449305	     22.81456699	      0.39818931	     -5.54729416	      3.86694568	     -6.64762516	     -7.93109894	      3.88216352	      0.00151039	     32.05723108	      8.08672231	     69.05800721	    116.14230453	    104.48637054	     48.11070163	      8.79289947	     68.30951275	    122.81265121	     97.14536727
      0.08333330	     -4.00901016	     -4.82904886	     -3.86064485	      0.53795110	      0.88631807	      0.03841862	     34.52451475	      2.29646445	     -0.39926418	     27.17907933	      0.47436442	     -3.94463238	    -22.00712455	     -6.90632556	     13.22949620	      4.43820169	     -4.37940866	     25.48152276	      0.44473647	    -10.14058306	      3.98126540	     -6.90632556	     -8.75678154	      4.29757648	      0.19251687	     32.53440359	      8.21664771	     71.08972722	    114.72568063	     97.29507552	     48.15838611	      8.62500797	     69.60176238	    122.74787744	     86.64831151
      0.10000000	     -3.39683697	     -5.14733203	     -4.17853568	      0.53789393	      0.88520597	      0.03865865	     34.42446313	      2.28665924	     -0.92769948	     26.57025307	      0.46373840	     -5.62035535	    -22.92361850	     -7.04189135	     13.96063310	      4.11101091	     -3.56058188	     27.48709814	      0.47974036	    -11.86504181	      4.49537287	     -7.04189135	    -10.00831360	      4.73748877	      0.59147883	     32.80912768	      7.86990307	     71.53675535	    114.71924029	     95.24094909	     47.97365412	      8.63723104	     70.31404688	    122.48874251	     82.16166116
      0.11666670	     -3.19626276	     -5.13767927	     -4.17025182	      0.53455530	      0.88242453	      0.04031467	     34.69025504	      2.06819632	     -1.70177851	     25.80100005	      0.45031240	     -5.82127060	    -22.40742047	     -7.06491796	     14.71313664	      3.94003134	     -3.31333209	     28.86689600	      0.50382238	    -12.53935481	      4.75099067	     -7.06491796	    -10.87835330	      4.74496507	      0.73321133	     32.80641890	      7.74954087	     71.31406531	    114.84694430	     94.32202491	     47.75169343	      8.69673508	     70.79715213	    122.47477739	     81.57195192
      0.13333330	     -2.51925639	     -5.58542294	     -4.26193532	      0.53815882	      0.88285407	      0.03786356	     34.37531524	      2.34531390	     -2.82124386	     24.63771240	      0.43000920	     -6.21132002	    -22.52456179	     -7.07070181	     14.78652226	      3.47133401	     -2.80207678	     30.12349801	      0.52575422	    -11.76389880	      4.32611694	     -7.07070181	    -12.22832410	      5.27676736	      1.15556090	     32.93860408	      7.43932943	     70.53406871	    114.50123253	     94.09662144	     47.77533407	      8.87257938	     71.28325937	    122.27057534	     81.25240962
      0.15000000	     -2.24907685	     -5.63638313	     -4.00057930	      0.53404736	      0.87906929	      0.04003654	     34.65045917	      2.42090236	     -3.43714855	     22.96276500	      0.40077585	     -5.72608120	    -22.09171917	     -7.07558953	     14.62421230	      3.40085936	     -2.52947358	     30.34759303	      0.52966542	     -8.10033128	      3.20798991	     -7.07558953	    -12.96909982	      5.14164584	      1.09299377	     32.92684713	      7.46419192	     70.13741332	    114.73478926	     93.87194726	     48.08150568	      9.06432776	     71.35805465	    122.16998637	     80.99713750
      0.16666670	     -1.25843101	     -5.91297928	     -3.38385090	      0.52998910	      0.87802920	      0.03650807	     33.91072508	      2.18766607	     -4.55181889	     21.49232516	      0.37511184	     -4.64268851	    -19.85234285	     -7.16618004	     14.45642752	      3.47138486	     -1.24404800	     31.55764372	      0.55078479	     -3.42815083	      2.71032099	     -7.16618004	    -14.73698892	      5.38279685	      1.59167948	     33.02153664	      6.97729517	     69.33244609	    116.04717576	     91.22516583	     49.19000260	      9.83560182	     72.11564148	    121.54654337	     74.30692518
      0.18333330	     -0.97532174	     -5.63682234	     -3.33171668	      0.52950160	      0.87137687	      0.03668969	     34.55162653	      1.72844754	     -4.45644771	     21.15095371	      0.36915378	     -3.77931259	    -19.48535016	     -7.17464953	     14.92328712	      3.99420035	     -0.42192183	     32.37725182	      0.56508965	      1.42759274	      0.90739913	     -7.17464953	    -15.50501849	      5.06452156	      1.63831987	     33.16368387	      7.19316433	     69.63783574	    115.95914063	     90.91652116	     49.39529894	      9.88518640	     72.11238619	    121.39116916	     74.11208126
      0.20000000	     -0.61032008	     -5.31234184	     -3.10476068	      0.52917062	      0.87066303	      0.03643498	     34.73004397	      1.10682251	     -4.60481578	     20.71772418	      0.36159250	     -3.45399816	    -18.64136115	     -7.18345057	     15.28337312	      4.56230399	      0.34935363	     33.31280252	      0.58141809	      5.61978720	     -0.39181828	     -7.18345057	    -16.36447916	      4.74168803	      1.32821255	     33.39212048	      7.23151104	     70.26977498	    116.59905955	     90.98453898	     49.53641670	      9.64745821	     72.26388231	    121.43198973	     73.87684257
      0.21666670	     -0.25777951	     -4.98503252	     -3.16457442	      0.52867257	      0.87097225	      0.03740483	     35.05676818	      0.81365590	     -4.38196662	     20.46285039	      0.35714411	     -3.60037200	    -18.23223510	     -7.18627559	     15.65139448	      4.98816968	      0.81598376	     34.14283047	      0.59590481	      8.21790347	     -1.97078293	     -7.18627559	    -17.29817096	      4.31237906	      1.44472891	     33.27919540	      7.25784180	     70.73501911	    116.47138044	     91.01671085	     49.39970299	      9.48909765	     72.49430473	    121.42857658	     73.79845438
